HIERARCHY
ROOT pelvis
{
  OFFSET 0 100 0
  CHANNELS 6 Xposition Yposition Zposition Zrotation Xrotation Yrotation
  JOINT pelvis_right_femur
  {
    OFFSET -10.78128 -3.44521 -0.5502486
    CHANNELS 3 Zrotation Xrotation Yrotation
    JOINT right_femur_tibia
    {
      OFFSET -0.8047443 -44.0398 -0.1307829
      CHANNELS 3 Zrotation Xrotation Yrotation
      JOINT right_tibia_foot
      {
        OFFSET 3.006224 -47.83518 -5
        CHANNELS 3 Zrotation Xrotation Yrotation
        End Site
        {
          OFFSET 0 -5 15
        }
      }
    }
  }
  JOINT pelvis_left_femur
  {
    OFFSET 10.78128 -3.44521 -0.5502486
    CHANNELS 3 Zrotation Xrotation Yrotation
    JOINT left_femur_tibia
    {
      OFFSET 0.8047443 -44.0398 -0.1307829
      CHANNELS 3 Zrotation Xrotation Yrotation
      JOINT left_tibia_foot
      {
        OFFSET -4.370144 -48.10324 -4.275266
        CHANNELS 3 Zrotation Xrotation Yrotation
        End Site
        {
          OFFSET 0 -5 15
        }
      }
    }
  }
  JOINT pelvis_spine1
  {
    OFFSET 0 6.468898 -3.129235
    CHANNELS 3 Zrotation Xrotation Yrotation
    JOINT spine1
    {
      OFFSET 0 23.15396 4.99043
      CHANNELS 3 Zrotation Xrotation Yrotation
      JOINT spine2
      {
        OFFSET 0 20.79997 -5.064912
        CHANNELS 3 Zrotation Xrotation Yrotation
        JOINT neck
        {
          OFFSET 0 14.38658 9.616178
          CHANNELS 3 Zrotation Xrotation Yrotation
          End Site
          {
            OFFSET 0 20 0
          }
        }
      }
      JOINT right_manubrium
      {
        OFFSET -5.722621 16.35077 3.967754
        CHANNELS 3 Zrotation Xrotation Yrotation
        JOINT right_clavicle
        {
          OFFSET -13.16364 1.694482 -4.693211
          CHANNELS 3 Zrotation Xrotation Yrotation
          JOINT right_humerus
          {
            OFFSET -28.5034 -0.3100689 -2.792744
            CHANNELS 3 Zrotation Xrotation Yrotation
            JOINT right_radius
            {
              OFFSET -25.15693 0.02248979 -1.271978
              CHANNELS 3 Zrotation Xrotation Yrotation
              End Site
              {
                OFFSET -15 0 0
              }
            }
          }
        }
      }
      JOINT left_manubrium
      {
        OFFSET 5.722621 16.35077 3.967754
        CHANNELS 3 Zrotation Xrotation Yrotation
        JOINT left_clavicle
        {
          OFFSET 13.16364 1.694482 -4.693211
          CHANNELS 3 Zrotation Xrotation Yrotation
          JOINT left_humerus
          {
            OFFSET 29.39168 -1.063119 -2.237045
            CHANNELS 3 Zrotation Xrotation Yrotation
            JOINT left_radius
            {
              OFFSET 24.59957 -0.9528479 0.9047498
              CHANNELS 3 Zrotation Xrotation Yrotation
              End Site
              {
                OFFSET 15 -0 -0
              }
            }
          }
        }
      }
    }
  }
}
MOTION
Frames: 17
Frame Time: 0.0416666666667
-1475.735 105.2086 1911.746 -4.019549 -5.492796 -75.58858 1.005869 -20.13683 -0.6688202 -0 19.56893 -0 -3.962404 5.346921 -1.839923 -10.48448 13.39971 -10.94775 -0 20.27251 -0 28.31296 -6.034387 27.26318 -5.441599 -4.230355 5.100136 2.580682 16.27597 -8.378665 0.1629321 22.66426 6.817508 1.617307 -22.19223 7.980475 -0.2764624 -22.14513 14.19849 98.25363 31.21308 -25.52513 -0 0 0.8698651 -20.44802 8.464362 14.50465 1.510746 -25.58745 -10.2589 -76.89573 5.571945 9.507769 0 0 -46.18044 21.15445 3.730148 -8.716474
-1480.711 105.2056 1913.336 -4.041716 -5.491932 -75.72745 1.002974 -20.11824 -0.6564656 -0 19.59783 -0 -3.958477 5.341102 -1.852444 -10.48854 13.39834 -10.94576 -0 20.2941 -0 28.34753 -6.00214 27.27123 -5.446613 -4.23159 5.101742 2.58019 16.28161 -8.37884 0.1637088 22.66647 6.812449 1.612187 -22.18226 7.977483 -0.2768479 -22.14914 14.20034 98.26267 31.22904 -25.52387 -0 0 0.8627864 -20.44791 8.465768 14.5151 1.494175 -25.58022 -10.26948 -76.87767 5.559934 9.506641 0 0 -46.21004 21.15133 3.716029 -8.703752
-1485.687 105.2054 1914.912 -4.055634 -5.486617 -75.86765 1.002864 -20.10661 -0.6348261 -0 19.63677 -0 -3.95183 5.319497 -1.864804 -10.49168 13.39497 -10.95355 -0 20.30196 -0 28.37884 -5.973719 27.28167 -5.452415 -4.231708 5.103636 2.581813 16.28229 -8.37946 0.1646677 22.66652 6.808467 1.608081 -22.17718 7.976697 -0.2689323 -22.15037 14.20154 98.26191 31.26014 -25.5196 -0 0 0.8645899 -20.43393 8.468645 14.51935 1.480568 -25.56707 -10.27214 -76.86646 5.558657 9.510567 0 0 -46.22244 21.14696 3.702812 -8.689671
-1490.663 105.2075 1916.476 -4.061276 -5.476319 -76.00859 1.005507 -20.10367 -0.6074688 -0 19.67944 -0 -3.943552 5.285773 -1.875063 -10.49344 13.39019 -10.96972 -0 20.29509 -0 28.40202 -5.953522 27.29285 -5.458084 -4.230714 5.105517 2.585255 16.27798 -8.380419 0.1656565 22.66444 6.806167 1.605612 -22.17771 7.978205 -0.2541121 -22.14868 14.20193 98.25164 31.30123 -25.51302 -0 0 0.8748235 -20.40851 8.472508 14.51681 1.472015 -25.55016 -10.26658 -76.86374 5.568123 9.518818 0 0 -46.21599 21.14204 3.692548 -8.676483
-1495.638 105.2109 1918.027 -4.059919 -5.461288 -76.14952 1.010453 -20.10973 -0.5787801 -0 19.71907 -0 -3.934971 5.24543 -1.88166 -10.49357 13.38479 -10.99159 -0 20.27486 -0 28.41358 -5.944582 27.30302 -5.462727 -4.228788 5.10709 2.589941 16.26946 -8.381556 0.1665264 22.66061 6.805878 1.605139 -22.18366 7.981733 -0.2348492 -22.14437 14.20144 98.23367 31.34565 -25.50522 -0 0 0.8917235 -20.37584 8.476719 14.508 1.469772 -25.53223 -10.25383 -76.86978 5.586665 9.530003 0 0 -46.19206 21.13736 3.686802 -8.666237
-1500.61 105.2146 1919.564 -4.053923 -5.442497 -76.28976 1.016904 -20.12368 -0.5532726 -0 19.74951 -0 -3.927444 5.204921 -1.883641 -10.49208 13.37966 -11.01563 -0 20.24476 -0 28.4119 -5.948108 27.31062 -5.465626 -4.22625 5.108111 2.595106 16.25813 -8.382688 0.1671511 22.65565 6.807602 1.606698 -22.19398 7.986696 -0.2142614 -22.13816 14.20015 98.21095 31.38636 -25.49745 -0 0 0.9125145 -20.34117 8.480604 14.49439 1.474076 -25.51611 -10.23601 -76.8835 5.611218 9.542306 0 0 -46.15473 21.13363 3.686411 -8.66047
-1505.581 105.2174 1921.089 -4.046342 -5.421473 -76.4287 1.023829 -20.1432 -0.5348851 -0 19.76613 -0 -3.922141 5.170625 -1.880793 -10.48923 13.37559 -11.03801 -0 20.20973 -0 28.39747 -5.963317 27.31449 -5.466352 -4.223505 5.108428 2.599927 16.24583 -8.383639 0.1674412 22.65038 6.811027 1.610007 -22.20696 7.992284 -0.1956149 -22.13107 14.19828 98.18715 31.41702 -25.49092 -0 0 0.9338609 -20.30999 8.483557 14.4782 1.484124 -25.5043 -10.21604 -76.90259 5.637816 9.553785 0 0 -46.11011 21.1314 3.691352 -8.659982
-1510.552 105.2184 1922.601 -4.040428 -5.400052 -76.56599 1.030127 -20.16511 -0.5263784 -0 19.76659 -0 -3.919859 5.147836 -1.873654 -10.48547 13.37319 -11.05523 -0 20.1754 -0 28.37281 -5.987592 27.31409 -5.464829 -4.220986 5.108004 2.603652 16.23452 -8.384262 0.1673551 22.64561 6.815582 1.614514 -22.22052 7.997603 -0.181804 -22.12422 14.19614 98.16603 31.43297 -25.48663 -0 0 0.9523996 -20.28715 8.485139 14.46205 1.498223 -25.49858 -10.19709 -76.92395 5.662232 9.562666 0 0 -46.06535 21.131 3.700755 -8.664739
-1515.525 105.2169 1924.1 -4.039103 -5.380077 -76.70151 1.034803 -20.18589 -0.528919 -0 19.75112 -0 -3.9209 5.139937 -1.863418 -10.48142 13.37277 -11.06467 -0 20.14712 -0 28.34199 -6.016933 27.30952 -5.461344 -4.219082 5.106918 2.60572 16.22596 -8.38447 0.1669066 22.64209 6.820532 1.619489 -22.23251 8.001816 -0.174902 -22.11871 14.19409 98.15086 31.43201 -25.48523 -0 0 0.9652687 -20.27611 8.485137 14.44849 1.514071 -25.49973 -10.18215 -76.94416 5.68065 9.567618 0 0 -46.02749 21.13245 3.713046 -8.673901
-1520.502 105.2126 1925.589 -4.044512 -5.363118 -76.83544 1.037135 -20.2023 -0.5419153 -0 19.72246 -0 -3.925033 5.147895 -1.851737 -10.47772 13.37435 -11.06499 -0 20.12916 -0 28.31 -6.046621 27.30158 -5.45649 -4.218082 5.105357 2.60584 16.22146 -8.384238 0.1661656 22.64035 6.825096 1.624141 -22.24108 8.004279 -0.1758538 -22.11538 14.19245 98.1439 31.41462 -25.48687 -0 0 0.9705497 -20.27839 8.48359 14.43964 1.529146 -25.50744 -10.17348 -76.96006 5.690274 9.567938 0 0 -46.00237 21.13551 3.726223 -8.685964
-1525.485 105.2058 1927.066 -4.057694 -5.350225 -76.9682 1.03679 -20.21182 -0.563134 -0 19.68534 -0 -3.931543 5.170145 -1.840466 -10.47496 13.37765 -11.05633 -0 20.12412 -0 28.2819 -6.071979 27.29158 -5.451061 -4.218129 5.103577 2.604035 16.22163 -8.38361 0.1652505 22.64062 6.828569 1.627745 -22.24497 8.004638 -0.184354 -22.11471 14.19147 98.1461 31.38386 -25.49125 -0 0 0.9675535 -20.29337 8.480769 14.43679 1.541096 -25.52037 -10.17231 -76.96923 5.689756 9.563653 0 0 -45.99369 21.13969 3.738181 -8.698996
-1530.476 105.197 1928.533 -4.078451 -5.341781 -77.10037 1.033879 -20.21311 -0.5890795 -0 19.64577 -0 -3.939358 5.202899 -1.831365 -10.47355 13.38213 -11.04023 -0 20.13253 -0 28.26203 -6.089117 27.28115 -5.445923 -4.219198 5.101862 2.600624 16.22636 -8.382692 0.1643108 22.64283 6.830427 1.629753 -22.24365 8.002882 -0.1989228 -22.11675 14.1913 98.15693 31.34482 -25.49761 -0 0 0.9569073 -20.31844 8.477134 14.44026 1.548112 -25.53639 -10.17868 -76.97036 5.679382 9.555508 0 0 -46.00249 21.1443 3.747062 -8.710942
-1535.475 105.1871 1929.989 -4.105399 -5.33746 -77.23264 1.028924 -20.20614 -0.6155716 -0 19.61001 -0 -3.947223 5.240797 -1.825833 -10.4737 13.3871 -11.01936 -0 20.15284 -0 28.25333 -6.095514 27.27196 -5.441872 -4.221104 5.10048 2.596172 16.2348 -8.381632 0.1635009 22.6466 6.830407 1.629881 -22.23742 7.999335 -0.2171619 -22.12111 14.19192 98.17453 31.30379 -25.50494 -0 0 0.9404307 -20.34944 8.473263 14.44935 1.549195 -25.55293 -10.19144 -76.96345 5.660986 9.544844 0 0 -46.02705 21.14861 3.75154 -8.719942
-1540.483 105.1771 1931.435 -4.136216 -5.336295 -77.36564 1.022759 -20.19217 -0.6384257 -0 19.58359 -0 -3.953908 5.277785 -1.824682 -10.47534 13.39177 -10.9971 -0 20.18167 -0 28.25694 -6.090384 27.26544 -5.439517 -4.22353 5.099641 2.591393 16.24556 -8.380597 0.1629523 22.65129 6.828543 1.628145 -22.22736 7.99459 -0.2361452 -22.12706 14.19323 98.196 31.26724 -25.51204 -0 0 0.9208253 -20.38139 8.46976 14.46252 1.544287 -25.56737 -10.20845 -76.94974 5.637624 9.533383 0 0 -46.0632 21.15193 3.751012 -8.724621
-1545.5 105.1681 1932.869 -4.168009 -5.33685 -77.4999 1.016384 -20.17354 -0.6541179 -0 19.57049 -0 -3.958391 5.308087 -1.828017 -10.47819 13.39541 -10.97697 -0 20.21437 -0 28.27204 -6.074753 27.26255 -5.439189 -4.226084 5.099463 2.587043 16.25691 -8.379749 0.1627487 22.65617 6.825161 1.624854 -22.2151 7.989414 -0.2528842 -22.13364 14.19499 98.21789 31.24079 -25.51782 -0 0 0.9012313 -20.40926 8.467171 14.47762 1.534271 -25.5775 -10.22697 -76.93152 5.613061 9.52295 0 0 -46.10506 21.15376 3.745671 -8.72431
-1550.522 105.1609 1934.292 -4.197777 -5.337459 -77.63573 1.010796 -20.15325 -0.660328 -0 19.57251 -0 -3.960015 5.327094 -1.835229 -10.48177 13.39745 -10.96206 -0 20.24574 -0 28.29606 -6.051268 27.26367 -5.440901 -4.228358 5.09996 2.583794 16.26706 -8.379221 0.1629128 22.66046 6.82082 1.620555 -22.20261 7.984622 -0.2647939 -22.13982 14.19694 98.23678 31.22841 -25.52139 -0 0 0.8847246 -20.42877 8.46589 14.49226 1.520808 -25.58181 -10.24408 -76.91172 5.591162 9.515176 0 0 -46.14594 21.15382 3.736447 -8.719145
-1555.55 105.1561 1935.703 -4.222873 -5.336491 -77.77318 1.006843 -20.13449 -0.6562758 -0 19.58905 -0 -3.958579 5.332052 -1.845103 -10.4855 13.39759 -10.95462 -0 20.27086 -0 28.32506 -6.02375 27.26851 -5.444351 -4.23 5.101044 2.58214 16.27445 -8.37909 0.1634057 22.66349 6.816221 1.615941 -22.19187 7.980954 -0.2700912 -22.14463 14.19877 98.24975 31.23178 -25.52224 -0 0 0.8738355 -20.43704 8.466104 14.50418 1.506071 -25.57973 -10.25713 -76.89347 5.575298 9.511242 0 0 -46.17946 21.15215 3.724852 -8.710037
